<svg id="Calque_1" data-name="Calque 1" xmlns="http://www.w3.org/2000/svg" viewBox="0 0 69.55 34.25"><title>logo ugo</title><circle cx="57.69" cy="17.03" r="9.15" style="fill:#358ccb;stroke:#000;stroke-miterlimit:10"/><circle cx="55.45" cy="17.95" r="3.56" style="stroke:#fff;stroke-miterlimit:10"/><rect x="148.58" y="263.06" width="3.46" height="10.65" transform="translate(-199.04 -128.57) rotate(-30)" style="stroke:#000;stroke-miterlimit:10;stroke-width:0.100000001490116px"/><path d="M93.89,266.16a10.22,10.22,0,0,1-3.52-.59,7.82,7.82,0,0,1-2.81-1.74A8.14,8.14,0,0,1,85.7,261a10.09,10.09,0,0,1-.68-3.83V239.71h1.55v17.35a8.75,8.75,0,0,0,.56,3.2,7.22,7.22,0,0,0,1.52,2.42A6.29,6.29,0,0,0,91,264.2a8.14,8.14,0,0,0,2.94.52,8,8,0,0,0,2.9-.52,6.47,6.47,0,0,0,2.33-1.52,7.09,7.09,0,0,0,1.54-2.42,8.76,8.76,0,0,0,.55-3.2V239.71h1.55v17.46a10.1,10.1,0,0,1-.68,3.83,7.88,7.88,0,0,1-4.7,4.57A10.07,10.07,0,0,1,93.89,266.16Z" transform="translate(-84.99 -239.68)" style="stroke:#020202;stroke-miterlimit:10;stroke-width:0.05000000074505806px"/><path d="M113,264.94a.93.93,0,0,1,.28-.68.9.9,0,0,1,1.3,0,.93.93,0,0,1,.28.68.88.88,0,0,1-.28.67.94.94,0,0,1-1.3,0A.88.88,0,0,1,113,264.94Z" transform="translate(-84.99 -239.68)" style="stroke:#020202;stroke-miterlimit:10;stroke-width:0.05000000074505806px"/><path d="M130.82,256.16v8.4a11.8,11.8,0,0,1-2.76,1.13,12,12,0,0,1-3.19.42,11.82,11.82,0,0,1-4.63-.87,10.79,10.79,0,0,1-3.53-2.36,10.22,10.22,0,0,1-2.26-3.5,11.79,11.79,0,0,1-.79-4.34,11.11,11.11,0,0,1,.9-4.46A11.54,11.54,0,0,1,117,247a11.2,11.2,0,0,1,3.58-2.4,11.08,11.08,0,0,1,4.37-.87,12.06,12.06,0,0,1,3.1.4,11.19,11.19,0,0,1,2.79,1.15l-.65,1.05a10.19,10.19,0,0,0-2.5-1,10.61,10.61,0,0,0-2.77-.37,9.44,9.44,0,0,0-3.84.79,10.14,10.14,0,0,0-3.16,2.17,10.3,10.3,0,0,0-2.15,3.22,9.85,9.85,0,0,0-.79,3.92,10.54,10.54,0,0,0,.7,3.84,9.29,9.29,0,0,0,5.12,5.27,10.2,10.2,0,0,0,4,.77,10.7,10.7,0,0,0,2.48-.29,9.4,9.4,0,0,0,2.33-.88v-6.45h-5.05v-1.12Z" transform="translate(-84.99 -239.68)" style="stroke:#020202;stroke-miterlimit:10;stroke-width:0.05000000074505806px"/></svg>